<svg xmlns="http://www.w3.org/2000/svg" width="1400" height="620" viewBox="0 0 1400 620">
<style>
.title { font: 700 22px sans-serif; fill: #102a43; }
.subtitle { font: 400 12px sans-serif; fill: #486581; }
.axis { font: 12px sans-serif; fill: #334e68; }
.small { font: 11px sans-serif; fill: #334e68; }
.label { font: 12px sans-serif; fill: #102a43; }
.value { font: 700 12px sans-serif; fill: #102a43; }
</style>
<rect x="0" y="0" width="1400" height="620" fill="#f8fbff" />
<text class="title" x="32" y="42">Architecture 1 Run Completion Rate</text>
<text class="subtitle" x="32" y="64">Top-level benchmark, pilot, smoke, and probe runs from arch-1/evals/runs plus the aggregated GPQA 198 shard run.</text>
<line x1="110" y1="90" x2="110" y2="490" stroke="#9fb3c8" stroke-width="1"/>
<line x1="110" y1="490" x2="1360" y2="490" stroke="#9fb3c8" stroke-width="1"/>
<line x1="110" y1="490.0" x2="1360" y2="490.0" stroke="#d9e2ec" stroke-width="1"/>
<text class="axis" x="98" y="494.0" text-anchor="end">0%</text>
<line x1="110" y1="410.0" x2="1360" y2="410.0" stroke="#d9e2ec" stroke-width="1"/>
<text class="axis" x="98" y="414.0" text-anchor="end">20%</text>
<line x1="110" y1="330.0" x2="1360" y2="330.0" stroke="#d9e2ec" stroke-width="1"/>
<text class="axis" x="98" y="334.0" text-anchor="end">40%</text>
<line x1="110" y1="250.0" x2="1360" y2="250.0" stroke="#d9e2ec" stroke-width="1"/>
<text class="axis" x="98" y="254.0" text-anchor="end">60%</text>
<line x1="110" y1="170.0" x2="1360" y2="170.0" stroke="#d9e2ec" stroke-width="1"/>
<text class="axis" x="98" y="174.0" text-anchor="end">80%</text>
<line x1="110" y1="90.0" x2="1360" y2="90.0" stroke="#d9e2ec" stroke-width="1"/>
<text class="axis" x="98" y="94.0" text-anchor="end">100%</text>
<rect x="110.0" y="160.7" width="42.9" height="329.3" rx="4" fill="#2f855a" />
<text class="value" x="131.4" y="152.7" text-anchor="middle">82%</text>
<text class="small" transform="translate(131.4,508) rotate(45)" text-anchor="start">gpqa diamond modal committee 198</text>
<rect x="164.9" y="483.9" width="42.9" height="6.1" rx="4" fill="#2f855a" />
<text class="value" x="186.3" y="475.9" text-anchor="middle">2%</text>
<text class="small" transform="translate(186.3,508) rotate(45)" text-anchor="start">gpqa modal t4 awq thinking 198</text>
<rect x="219.7" y="90.0" width="42.9" height="400.0" rx="4" fill="#2b6cb0" />
<text class="value" x="241.2" y="82.0" text-anchor="middle">100%</text>
<text class="small" transform="translate(241.2,508) rotate(45)" text-anchor="start">gpqa diamond modal committee 5pilot</text>
<rect x="274.6" y="490.0" width="42.9" height="0.0" rx="4" fill="#805ad5" />
<text class="value" x="296.0" y="482.0" text-anchor="middle">0%</text>
<text class="small" transform="translate(296.0,508) rotate(45)" text-anchor="start">gpqa modal t4 awq thinking probe 1</text>
<rect x="329.5" y="90.0" width="42.9" height="400.0" rx="4" fill="#805ad5" />
<text class="value" x="350.9" y="82.0" text-anchor="middle">100%</text>
<text class="small" transform="translate(350.9,508) rotate(45)" text-anchor="start">gpqa modal t4 awq thinking probe 1 tuned</text>
<rect x="384.3" y="490.0" width="42.9" height="0.0" rx="4" fill="#805ad5" />
<text class="value" x="405.8" y="482.0" text-anchor="middle">0%</text>
<text class="small" transform="translate(405.8,508) rotate(45)" text-anchor="start">gpqa modal t4 awq thinking probe 1 warm</text>
<rect x="439.2" y="490.0" width="42.9" height="0.0" rx="4" fill="#805ad5" />
<text class="value" x="460.7" y="482.0" text-anchor="middle">0%</text>
<text class="small" transform="translate(460.7,508) rotate(45)" text-anchor="start">gpqa modal thinking probe 1</text>
<rect x="494.1" y="490.0" width="42.9" height="0.0" rx="4" fill="#805ad5" />
<text class="value" x="515.5" y="482.0" text-anchor="middle">0%</text>
<text class="small" transform="translate(515.5,508) rotate(45)" text-anchor="start">gpqa modal thinking probe 1 escalated</text>
<rect x="549.0" y="90.0" width="42.9" height="400.0" rx="4" fill="#2f855a" />
<text class="value" x="570.4" y="82.0" text-anchor="middle">100%</text>
<text class="small" transform="translate(570.4,508) rotate(45)" text-anchor="start">hotpot aws g4dn qwen single shot 75</text>
<rect x="603.8" y="100.7" width="42.9" height="389.3" rx="4" fill="#2f855a" />
<text class="value" x="625.3" y="92.7" text-anchor="middle">97%</text>
<text class="small" transform="translate(625.3,508) rotate(45)" text-anchor="start">hotpot aws g4dn thinking 75</text>
<rect x="658.7" y="90.0" width="42.9" height="400.0" rx="4" fill="#2f855a" />
<text class="value" x="680.1" y="82.0" text-anchor="middle">100%</text>
<text class="small" transform="translate(680.1,508) rotate(45)" text-anchor="start">hotpot modal 100</text>
<rect x="713.6" y="490.0" width="42.9" height="0.0" rx="4" fill="#2f855a" />
<text class="value" x="735.0" y="482.0" text-anchor="middle">0%</text>
<text class="small" transform="translate(735.0,508) rotate(45)" text-anchor="start">hotpot qwen3 8b awq single shot 75</text>
<rect x="768.4" y="490.0" width="42.9" height="0.0" rx="4" fill="#718096" />
<text class="value" x="789.9" y="482.0" text-anchor="middle">0%</text>
<text class="small" transform="translate(789.9,508) rotate(45)" text-anchor="start">hotpot qwen8b</text>
<rect x="823.3" y="490.0" width="42.9" height="0.0" rx="4" fill="#718096" />
<text class="value" x="844.7" y="482.0" text-anchor="middle">0%</text>
<text class="small" transform="translate(844.7,508) rotate(45)" text-anchor="start">hotpot qwen8b</text>
<rect x="878.2" y="90.0" width="42.9" height="400.0" rx="4" fill="#2b6cb0" />
<text class="value" x="899.6" y="82.0" text-anchor="middle">100%</text>
<text class="small" transform="translate(899.6,508) rotate(45)" text-anchor="start">hotpot modal committee 5pilot</text>
<rect x="933.0" y="90.0" width="42.9" height="400.0" rx="4" fill="#dd6b20" />
<text class="value" x="954.5" y="82.0" text-anchor="middle">100%</text>
<text class="small" transform="translate(954.5,508) rotate(45)" text-anchor="start">hotpot modal smoke 2</text>
<rect x="987.9" y="90.0" width="42.9" height="400.0" rx="4" fill="#dd6b20" />
<text class="value" x="1009.3" y="82.0" text-anchor="middle">100%</text>
<text class="small" transform="translate(1009.3,508) rotate(45)" text-anchor="start">hotpot modal smoke 2</text>
<rect x="1042.8" y="90.0" width="42.9" height="400.0" rx="4" fill="#dd6b20" />
<text class="value" x="1064.2" y="82.0" text-anchor="middle">100%</text>
<text class="small" transform="translate(1064.2,508) rotate(45)" text-anchor="start">hotpot modal smoke 2</text>
<rect x="1097.7" y="90.0" width="42.9" height="400.0" rx="4" fill="#dd6b20" />
<text class="value" x="1119.1" y="82.0" text-anchor="middle">100%</text>
<text class="small" transform="translate(1119.1,508) rotate(45)" text-anchor="start">hotpot modal smoke 2</text>
<rect x="1152.5" y="90.0" width="42.9" height="400.0" rx="4" fill="#dd6b20" />
<text class="value" x="1174.0" y="82.0" text-anchor="middle">100%</text>
<text class="small" transform="translate(1174.0,508) rotate(45)" text-anchor="start">hotpot qwen3 8b ollama 20 smoke</text>
<rect x="1207.4" y="90.0" width="42.9" height="400.0" rx="4" fill="#dd6b20" />
<text class="value" x="1228.8" y="82.0" text-anchor="middle">100%</text>
<text class="small" transform="translate(1228.8,508) rotate(45)" text-anchor="start">hotpot qwen3 8b ollama 20 smoke</text>
<rect x="1262.3" y="90.0" width="42.9" height="400.0" rx="4" fill="#dd6b20" />
<text class="value" x="1283.7" y="82.0" text-anchor="middle">100%</text>
<text class="small" transform="translate(1283.7,508) rotate(45)" text-anchor="start">hotpot qwen3 8b ollama 20 smoke v2</text>
<rect x="1317.1" y="90.0" width="42.9" height="400.0" rx="4" fill="#dd6b20" />
<text class="value" x="1338.6" y="82.0" text-anchor="middle">100%</text>
<text class="small" transform="translate(1338.6,508) rotate(45)" text-anchor="start">hotpot qwen3 8b ollama 20 smoke v2</text>
<rect x="32" y="582" width="14" height="14" fill="#2f855a" rx="2" />
<text class="axis" x="54" y="594">benchmark</text>
<rect x="212" y="582" width="14" height="14" fill="#2b6cb0" rx="2" />
<text class="axis" x="234" y="594">pilot</text>
<rect x="392" y="582" width="14" height="14" fill="#dd6b20" rx="2" />
<text class="axis" x="414" y="594">smoke</text>
<rect x="572" y="582" width="14" height="14" fill="#805ad5" rx="2" />
<text class="axis" x="594" y="594">probe</text>
</svg>