<svg xmlns="http://www.w3.org/2000/svg" width="1200" height="640" viewBox="0 0 1200 640">
<style>
.title { font: 700 22px sans-serif; fill: #102a43; }
.subtitle { font: 400 12px sans-serif; fill: #486581; }
.axis { font: 12px sans-serif; fill: #334e68; }
.small { font: 11px sans-serif; fill: #334e68; }
.label { font: 12px sans-serif; fill: #102a43; }
.value { font: 700 12px sans-serif; fill: #102a43; }
</style>
<rect x="0" y="0" width="1200" height="640" fill="#f8fbff" />
<text class="title" x="32" y="42">GPQA Accuracy Context</text>
<text class="subtitle" x="32" y="64">Includes repo-run committee traces and the official Qwen3-8B reference figures already recorded in the local GPQA report.</text>
<line x1="120" y1="90" x2="120" y2="490" stroke="#9fb3c8" stroke-width="1"/>
<line x1="120" y1="490" x2="1160" y2="490" stroke="#9fb3c8" stroke-width="1"/>
<line x1="120" y1="490.0" x2="1160" y2="490.0" stroke="#d9e2ec" stroke-width="1"/>
<text class="axis" x="108" y="494.0" text-anchor="end">0%</text>
<line x1="120" y1="410.0" x2="1160" y2="410.0" stroke="#d9e2ec" stroke-width="1"/>
<text class="axis" x="108" y="414.0" text-anchor="end">20%</text>
<line x1="120" y1="330.0" x2="1160" y2="330.0" stroke="#d9e2ec" stroke-width="1"/>
<text class="axis" x="108" y="334.0" text-anchor="end">40%</text>
<line x1="120" y1="250.0" x2="1160" y2="250.0" stroke="#d9e2ec" stroke-width="1"/>
<text class="axis" x="108" y="254.0" text-anchor="end">60%</text>
<line x1="120" y1="170.0" x2="1160" y2="170.0" stroke="#d9e2ec" stroke-width="1"/>
<text class="axis" x="108" y="174.0" text-anchor="end">80%</text>
<line x1="120" y1="90.0" x2="1160" y2="90.0" stroke="#d9e2ec" stroke-width="1"/>
<text class="axis" x="108" y="94.0" text-anchor="end">100%</text>
<rect x="120.0" y="283.9" width="126.3" height="206.1" rx="4" fill="#2b6cb0" />
<text class="value" x="183.1" y="275.9" text-anchor="middle">51.5%</text>
<text class="small" transform="translate(183.1,508) rotate(45)" text-anchor="start">committee | gpqa diamond modal committee 198</text>
<rect x="272.3" y="320.3" width="126.3" height="169.7" rx="4" fill="#718096" />
<text class="value" x="335.4" y="312.3" text-anchor="middle">42.4%</text>
<text class="small" transform="translate(335.4,508) rotate(45)" text-anchor="start">committee | full-set lower bound</text>
<rect x="424.6" y="170.0" width="126.3" height="320.0" rx="4" fill="#2b6cb0" />
<text class="value" x="487.7" y="162.0" text-anchor="middle">80.0%</text>
<text class="small" transform="translate(487.7,508) rotate(45)" text-anchor="start">committee | gpqa diamond modal committee 5pilot</text>
<rect x="576.9" y="356.7" width="126.3" height="133.3" rx="4" fill="#2b6cb0" />
<text class="value" x="640.0" y="348.7" text-anchor="middle">33.3%</text>
<text class="small" transform="translate(640.0,508) rotate(45)" text-anchor="start">committee | gpqa modal t4 awq thinking 198</text>
<rect x="729.1" y="90.0" width="126.3" height="400.0" rx="4" fill="#2b6cb0" />
<text class="value" x="792.3" y="82.0" text-anchor="middle">100.0%</text>
<text class="small" transform="translate(792.3,508) rotate(45)" text-anchor="start">committee | gpqa modal t4 awq thinking probe 1 tuned</text>
<rect x="881.4" y="332.8" width="126.3" height="157.2" rx="4" fill="#dd6b20" />
<text class="value" x="944.6" y="324.8" text-anchor="middle">39.3%</text>
<text class="small" transform="translate(944.6,508) rotate(45)" text-anchor="start">official qwen3-8b non-thinking</text>
<rect x="1033.7" y="332.8" width="126.3" height="157.2" rx="4" fill="#2f855a" />
<text class="value" x="1096.9" y="324.8" text-anchor="middle">39.3%</text>
<text class="small" transform="translate(1096.9,508) rotate(45)" text-anchor="start">official qwen3-8b thinking</text>
</svg>