<svg xmlns="http://www.w3.org/2000/svg" width="1100" height="560" viewBox="0 0 1100 560">
<style>
.title { font: 700 22px sans-serif; fill: #102a43; }
.subtitle { font: 400 12px sans-serif; fill: #486581; }
.axis { font: 12px sans-serif; fill: #334e68; }
.small { font: 11px sans-serif; fill: #334e68; }
.label { font: 12px sans-serif; fill: #102a43; }
.value { font: 700 12px sans-serif; fill: #102a43; }
</style>
<rect x="0" y="0" width="1100" height="560" fill="#f8fbff" />
<text class="title" x="32" y="42">HotpotQA Committee Token Load by Stage</text>
<text class="subtitle" x="32" y="64">Based on the 73-completion HotpotQA AWS committee run. Later stages pay for accumulated context from earlier ones.</text>
<line x1="160" y1="490" x2="1060" y2="490" stroke="#9fb3c8" stroke-width="1"/>
<line x1="160" y1="90" x2="160" y2="490" stroke="#9fb3c8" stroke-width="1"/>
<text class="label" x="148" y="124.4" text-anchor="end">coordinator_plan</text>
<rect x="160" y="90.0" width="390.5" height="60.8" rx="4" fill="#2b6cb0" />
<text class="value" x="558.5" y="124.4">196,031</text>
<text class="label" x="148" y="209.2" text-anchor="end">researcher</text>
<rect x="160" y="174.8" width="519.0" height="60.8" rx="4" fill="#3182ce" />
<text class="value" x="687.0" y="209.2">260,488</text>
<text class="label" x="148" y="294.0" text-anchor="end">analyst</text>
<rect x="160" y="259.6" width="617.3" height="60.8" rx="4" fill="#63b3ed" />
<text class="value" x="785.3" y="294.0">309,837</text>
<text class="label" x="148" y="378.8" text-anchor="end">critic</text>
<rect x="160" y="344.4" width="729.9" height="60.8" rx="4" fill="#90cdf4" />
<text class="value" x="897.9" y="378.8">366,386</text>
<text class="label" x="148" y="463.6" text-anchor="end">coordinator_finalize</text>
<rect x="160" y="429.2" width="818.2" height="60.8" rx="4" fill="#bee3f8" />
<text class="value" x="986.2" y="463.6">410,682</text>
</svg>