<svg xmlns="http://www.w3.org/2000/svg" width="1400" height="700" viewBox="0 0 1400 700">
<style>
.title { font: 700 22px sans-serif; fill: #102a43; }
.subtitle { font: 400 12px sans-serif; fill: #486581; }
.axis { font: 12px sans-serif; fill: #334e68; }
.small { font: 11px sans-serif; fill: #334e68; }
.label { font: 12px sans-serif; fill: #102a43; }
.value { font: 700 12px sans-serif; fill: #102a43; }
</style>
<rect x="0" y="0" width="1400" height="700" fill="#f8fbff" />
<text class="title" x="32" y="42">HotpotQA Quality by Run and System</text>
<text class="subtitle" x="32" y="64">Answer F1 is the primary quality metric here. EM is annotated above each bar pair.</text>
<line x1="130" y1="90" x2="130" y2="520" stroke="#9fb3c8" stroke-width="1"/>
<line x1="130" y1="520" x2="1360" y2="520" stroke="#9fb3c8" stroke-width="1"/>
<line x1="130" y1="520.0" x2="1360" y2="520.0" stroke="#d9e2ec" stroke-width="1"/>
<text class="axis" x="118" y="524.0" text-anchor="end">0%</text>
<line x1="130" y1="434.0" x2="1360" y2="434.0" stroke="#d9e2ec" stroke-width="1"/>
<text class="axis" x="118" y="438.0" text-anchor="end">20%</text>
<line x1="130" y1="348.0" x2="1360" y2="348.0" stroke="#d9e2ec" stroke-width="1"/>
<text class="axis" x="118" y="352.0" text-anchor="end">40%</text>
<line x1="130" y1="262.0" x2="1360" y2="262.0" stroke="#d9e2ec" stroke-width="1"/>
<text class="axis" x="118" y="266.0" text-anchor="end">60%</text>
<line x1="130" y1="176.0" x2="1360" y2="176.0" stroke="#d9e2ec" stroke-width="1"/>
<text class="axis" x="118" y="180.0" text-anchor="end">80%</text>
<line x1="130" y1="90.0" x2="1360" y2="90.0" stroke="#d9e2ec" stroke-width="1"/>
<text class="axis" x="118" y="94.0" text-anchor="end">100%</text>
<rect x="130.0" y="513.1" width="82.3" height="6.9" rx="4" fill="#ff7f0e" />
<text class="value" x="171.2" y="505.1" text-anchor="middle">2%</text>
<text class="small" x="171.2" y="489.1" text-anchor="middle">EM 0%</text>
<text class="small" transform="translate(171.2,538) rotate(45)" text-anchor="start">single_shot | hotpot aws g4dn qwen single shot 75</text>
<rect x="234.3" y="271.7" width="82.3" height="248.3" rx="4" fill="#1f77b4" />
<text class="value" x="275.5" y="263.7" text-anchor="middle">58%</text>
<text class="small" x="275.5" y="247.7" text-anchor="middle">EM 38%</text>
<text class="small" transform="translate(275.5,538) rotate(45)" text-anchor="start">committee | hotpot aws g4dn thinking 75</text>
<rect x="338.7" y="513.2" width="82.3" height="6.8" rx="4" fill="#2ca02c" />
<text class="value" x="379.8" y="505.2" text-anchor="middle">2%</text>
<text class="small" x="379.8" y="489.2" text-anchor="middle">EM 0%</text>
<text class="small" transform="translate(379.8,538) rotate(45)" text-anchor="start">single_multiturn | hotpot modal 100</text>
<rect x="443.0" y="331.9" width="82.3" height="188.1" rx="4" fill="#1f77b4" />
<text class="value" x="484.2" y="323.9" text-anchor="middle">44%</text>
<text class="small" x="484.2" y="307.9" text-anchor="middle">EM 20%</text>
<text class="small" transform="translate(484.2,538) rotate(45)" text-anchor="start">committee | hotpot modal committee 5pilot</text>
<rect x="547.3" y="246.4" width="82.3" height="273.6" rx="4" fill="#1f77b4" />
<text class="value" x="588.5" y="238.4" text-anchor="middle">64%</text>
<text class="small" x="588.5" y="222.4" text-anchor="middle">EM 50%</text>
<text class="small" transform="translate(588.5,538) rotate(45)" text-anchor="start">committee | hotpot modal smoke 2</text>
<rect x="651.7" y="513.3" width="82.3" height="6.7" rx="4" fill="#2ca02c" />
<text class="value" x="692.8" y="505.3" text-anchor="middle">2%</text>
<text class="small" x="692.8" y="489.3" text-anchor="middle">EM 0%</text>
<text class="small" transform="translate(692.8,538) rotate(45)" text-anchor="start">single_multiturn | hotpot modal smoke 2</text>
<rect x="756.0" y="516.1" width="82.3" height="3.9" rx="4" fill="#ff7f0e" />
<text class="value" x="797.2" y="508.1" text-anchor="middle">1%</text>
<text class="small" x="797.2" y="492.1" text-anchor="middle">EM 0%</text>
<text class="small" transform="translate(797.2,538) rotate(45)" text-anchor="start">single_shot | hotpot modal smoke 2</text>
<rect x="860.3" y="516.5" width="82.3" height="3.5" rx="4" fill="#d62728" />
<text class="value" x="901.5" y="508.5" text-anchor="middle">1%</text>
<text class="small" x="901.5" y="492.5" text-anchor="middle">EM 0%</text>
<text class="small" transform="translate(901.5,538) rotate(45)" text-anchor="start">single_structured | hotpot modal smoke 2</text>
<rect x="964.7" y="434.0" width="82.3" height="86.0" rx="4" fill="#1f77b4" />
<text class="value" x="1005.8" y="426.0" text-anchor="middle">20%</text>
<text class="small" x="1005.8" y="410.0" text-anchor="middle">EM 0%</text>
<text class="small" transform="translate(1005.8,538) rotate(45)" text-anchor="start">committee | hotpot qwen3 8b ollama 20 smoke</text>
<rect x="1069.0" y="488.1" width="82.3" height="31.9" rx="4" fill="#9467bd" />
<text class="value" x="1110.2" y="480.1" text-anchor="middle">7%</text>
<text class="small" x="1110.2" y="464.1" text-anchor="middle">EM 0%</text>
<text class="small" transform="translate(1110.2,538) rotate(45)" text-anchor="start">single_direct | hotpot qwen3 8b ollama 20 smoke</text>
<rect x="1173.3" y="90.0" width="82.3" height="430.0" rx="4" fill="#1f77b4" />
<text class="value" x="1214.5" y="82.0" text-anchor="middle">100%</text>
<text class="small" x="1214.5" y="66.0" text-anchor="middle">EM 100%</text>
<text class="small" transform="translate(1214.5,538) rotate(45)" text-anchor="start">committee | hotpot qwen3 8b ollama 20 smoke v2</text>
<rect x="1277.7" y="90.0" width="82.3" height="430.0" rx="4" fill="#9467bd" />
<text class="value" x="1318.8" y="82.0" text-anchor="middle">100%</text>
<text class="small" x="1318.8" y="66.0" text-anchor="middle">EM 100%</text>
<text class="small" transform="translate(1318.8,538) rotate(45)" text-anchor="start">single_direct | hotpot qwen3 8b ollama 20 smoke v2</text>
</svg>