<svg xmlns="http://www.w3.org/2000/svg" width="1200" height="760" viewBox="0 0 1200 760">
<style>
.title { font: 700 22px sans-serif; fill: #102a43; }
.subtitle { font: 400 12px sans-serif; fill: #486581; }
.axis { font: 12px sans-serif; fill: #334e68; }
.small { font: 11px sans-serif; fill: #334e68; }
.label { font: 12px sans-serif; fill: #102a43; }
.value { font: 700 12px sans-serif; fill: #102a43; }
</style>
<rect x="0" y="0" width="1200" height="760" fill="#f8fbff" />
<text class="title" x="32" y="42">Quality vs Cost</text>
<text class="subtitle" x="32" y="64">X-axis = mean seconds per completed task. Y-axis = answer F1 for HotpotQA or choice accuracy for GPQA. Bubble size tracks total tokens.</text>
<line x1="120" y1="90" x2="120" y2="670" stroke="#9fb3c8" stroke-width="1"/>
<line x1="120" y1="670" x2="1130" y2="670" stroke="#9fb3c8" stroke-width="1"/>
<line x1="120.0" y1="90" x2="120.0" y2="670" stroke="#eef2f6" stroke-width="1"/>
<text class="axis" x="120.0" y="694" text-anchor="middle">0s</text>
<line x1="322.0" y1="90" x2="322.0" y2="670" stroke="#eef2f6" stroke-width="1"/>
<text class="axis" x="322.0" y="694" text-anchor="middle">571s</text>
<line x1="524.0" y1="90" x2="524.0" y2="670" stroke="#eef2f6" stroke-width="1"/>
<text class="axis" x="524.0" y="694" text-anchor="middle">1142s</text>
<line x1="726.0" y1="90" x2="726.0" y2="670" stroke="#eef2f6" stroke-width="1"/>
<text class="axis" x="726.0" y="694" text-anchor="middle">1713s</text>
<line x1="928.0" y1="90" x2="928.0" y2="670" stroke="#eef2f6" stroke-width="1"/>
<text class="axis" x="928.0" y="694" text-anchor="middle">2284s</text>
<line x1="1130.0" y1="90" x2="1130.0" y2="670" stroke="#eef2f6" stroke-width="1"/>
<text class="axis" x="1130.0" y="694" text-anchor="middle">2854s</text>
<line x1="120" y1="670.0" x2="1130" y2="670.0" stroke="#eef2f6" stroke-width="1"/>
<text class="axis" x="108" y="674.0" text-anchor="end">0%</text>
<line x1="120" y1="554.0" x2="1130" y2="554.0" stroke="#eef2f6" stroke-width="1"/>
<text class="axis" x="108" y="558.0" text-anchor="end">23%</text>
<line x1="120" y1="438.0" x2="1130" y2="438.0" stroke="#eef2f6" stroke-width="1"/>
<text class="axis" x="108" y="442.0" text-anchor="end">46%</text>
<line x1="120" y1="322.0" x2="1130" y2="322.0" stroke="#eef2f6" stroke-width="1"/>
<text class="axis" x="108" y="326.0" text-anchor="end">69%</text>
<line x1="120" y1="206.0" x2="1130" y2="206.0" stroke="#eef2f6" stroke-width="1"/>
<text class="axis" x="108" y="210.0" text-anchor="end">92%</text>
<line x1="120" y1="90.0" x2="1130" y2="90.0" stroke="#eef2f6" stroke-width="1"/>
<text class="axis" x="108" y="94.0" text-anchor="end">115%</text>
<circle cx="255.6" cy="410.1" r="30.0" fill="#2b6cb0" fill-opacity="0.72" stroke="#102a43" stroke-width="1"/>
<text class="small" x="291.6" y="414.1">GPQA committee</text>
<circle cx="603.2" cy="501.9" r="10.8" fill="#2b6cb0" fill-opacity="0.72" stroke="#102a43" stroke-width="1"/>
<text class="small" x="619.9" y="505.9">GPQA committee</text>
<circle cx="249.8" cy="266.5" r="11.7" fill="#2b6cb0" fill-opacity="0.72" stroke="#102a43" stroke-width="1"/>
<text class="small" x="267.5" y="270.5">GPQA committee</text>
<circle cx="1038.2" cy="165.7" r="9.6" fill="#2b6cb0" fill-opacity="0.72" stroke="#102a43" stroke-width="1"/>
<text class="small" x="1053.8" y="169.7">GPQA committee</text>
<circle cx="128.2" cy="661.9" r="13.0" fill="#dd6b20" fill-opacity="0.72" stroke="#102a43" stroke-width="1"/>
<text class="small" x="147.2" y="665.9">HotpotQA single_shot</text>
<circle cx="173.1" cy="378.8" r="22.9" fill="#dd6b20" fill-opacity="0.72" stroke="#102a43" stroke-width="1"/>
<text class="small" x="202.0" y="382.8">HotpotQA committee</text>
<circle cx="157.1" cy="662.0" r="13.3" fill="#dd6b20" fill-opacity="0.72" stroke="#102a43" stroke-width="1"/>
<text class="small" x="176.3" y="666.0">HotpotQA single_multiturn</text>
<circle cx="206.5" cy="449.3" r="11.8" fill="#dd6b20" fill-opacity="0.72" stroke="#102a43" stroke-width="1"/>
<text class="small" x="224.3" y="453.3">HotpotQA committee</text>
<circle cx="202.2" cy="349.1" r="10.4" fill="#dd6b20" fill-opacity="0.72" stroke="#102a43" stroke-width="1"/>
<text class="small" x="218.5" y="353.1">HotpotQA committee</text>
<circle cx="150.9" cy="662.1" r="9.4" fill="#dd6b20" fill-opacity="0.72" stroke="#102a43" stroke-width="1"/>
<text class="small" x="166.3" y="666.1">HotpotQA single_multiturn</text>
<circle cx="179.3" cy="665.4" r="8.8" fill="#dd6b20" fill-opacity="0.72" stroke="#102a43" stroke-width="1"/>
<text class="small" x="194.1" y="669.4">HotpotQA single_shot</text>
<circle cx="136.0" cy="665.9" r="8.8" fill="#dd6b20" fill-opacity="0.72" stroke="#102a43" stroke-width="1"/>
<text class="small" x="150.8" y="669.9">HotpotQA single_structured</text>
<circle cx="290.7" cy="569.1" r="9.4" fill="#dd6b20" fill-opacity="0.72" stroke="#102a43" stroke-width="1"/>
<text class="small" x="306.1" y="573.1">HotpotQA committee</text>
<circle cx="136.5" cy="632.6" r="8.5" fill="#dd6b20" fill-opacity="0.72" stroke="#102a43" stroke-width="1"/>
<text class="small" x="151.0" y="636.6">HotpotQA single_direct</text>
<circle cx="330.5" cy="165.7" r="9.4" fill="#dd6b20" fill-opacity="0.72" stroke="#102a43" stroke-width="1"/>
<text class="small" x="345.9" y="169.7">HotpotQA committee</text>
<circle cx="141.9" cy="165.7" r="8.5" fill="#dd6b20" fill-opacity="0.72" stroke="#102a43" stroke-width="1"/>
<text class="small" x="156.3" y="169.7">HotpotQA single_direct</text>
</svg>